<?xml version="1.0" encoding="iso-8859-1"?>
<!-- Generator: Adobe Illustrator 19.0.0, SVG Export Plug-In . SVG Version: 6.00 Build 0)  -->
<svg xmlns="http://www.w3.org/2000/svg" xmlns:xlink="http://www.w3.org/1999/xlink" version="1.1" id="Capa_1" x="0px" y="0px" viewBox="0 0 512 512" style="enable-background:new 0 0 512 512;" xml:space="preserve" width="512px" height="512px">
<g>
	<g>
		<path d="M497,361h-46v-75c0-8.291-6.709-15-15-15H271v-60h105c8.291,0,15-6.709,15-15V15c0-8.291-6.709-15-15-15H136    c-8.291,0-15,6.709-15,15v181c0,8.291,6.709,15,15,15h105v60H76c-8.291,0-15,6.709-15,15v75H15c-8.291,0-15,6.709-15,15v121    c0,8.291,6.709,15,15,15h121c8.291,0,15-6.709,15-15V376c0-8.291-6.709-15-15-15H91v-60h150v60h-45c-8.291,0-15,6.709-15,15v121    c0,8.291,6.709,15,15,15h120c8.291,0,15-6.709,15-15V376c0-8.291-6.709-15-15-15h-45v-60h150v60h-45c-8.291,0-15,6.709-15,15v121    c0,8.291,6.709,15,15,15h121c8.291,0,15-6.709,15-15V376C512,367.709,505.291,361,497,361z M196,61h120c8.291,0,15,6.709,15,15    s-6.709,15-15,15H196c-8.291,0-15-6.709-15-15S187.709,61,196,61z M196,151c-8.291,0-15-6.709-15-15s6.709-15,15-15h120    c8.291,0,15,6.709,15,15s-6.709,15-15,15H196z" fill="#FFFFFF"/>
	</g>
</g>
<g>
</g>
<g>
</g>
<g>
</g>
<g>
</g>
<g>
</g>
<g>
</g>
<g>
</g>
<g>
</g>
<g>
</g>
<g>
</g>
<g>
</g>
<g>
</g>
<g>
</g>
<g>
</g>
<g>
</g>
</svg>
